<?xml version="1.0" encoding="UTF-8"?>
<svg width="40px" height="39px" viewBox="0 0 40 39" version="1.1" xmlns="http://www.w3.org/2000/svg" xmlns:xlink="http://www.w3.org/1999/xlink">
    <!-- Generator: Sketch 60.1 (88133) - https://sketch.com -->
    <title>5</title>
    <desc>Created with Sketch.</desc>
    <g id="页面-1" stroke="none" stroke-width="1" fill="none" fill-rule="evenodd">
        <path d="M20,4.14779322e-13 L22,11.9399453 L20.6995136,11.939 L20.6995136,14.939 L23,14.9399453 L23,16.9399453 L20.6995136,16.939 L20.6995136,19.939 L23,19.9399453 L23,21.9399453 L20.6995136,21.939 L20.6995136,23.939 L23,23.9399453 L23,25.9399453 L20.6995136,25.939 L20.6995136,32.346 L25.0005136,32.346 L25.0031761,32.1785187 C25.0876079,28.7098671 26.8447424,25.9399453 29,25.9399453 C29.8562036,25.9399453 30.6495763,26.377088 31.3002083,27.1215199 L31.3,9.86845007 L32.7,9.86845007 L32.7003089,29.9668906 C32.8934645,30.7292329 33,31.5643719 33,32.4399453 L33.0003637,32.4553778 C35.6533752,32.5676676 37.9702891,33.6967745 39.9215686,35.8215004 L39.9215686,35.8215004 L39.0377329,36.6331865 L38.806548,36.388494 C37.1149421,34.648863 35.1648979,33.7434239 32.9304167,33.6535177 C32.5800608,36.6641566 30.9535808,38.9399453 29,38.9399453 C27.0663762,38.9399453 25.4532044,36.7104163 25.0809031,33.7470388 L20.6995136,33.746 L20.7,33.8684501 L19.3,33.8684501 L19.2995136,33.746 L15.9190969,33.7470388 C15.5467956,36.7104163 13.9336238,38.9399453 12,38.9399453 C10.0929897,38.9399453 8.49767097,36.7713664 8.09697847,33.8689775 L7.64420958,33.8684501 L7.64374574,33.652885 C5.40253849,33.739086 3.44719662,34.6446912 1.75153411,36.388494 L1.52034929,36.6331865 L0.636513565,35.8215004 C2.60893584,33.6737524 4.95495894,32.543316 7.64407551,32.4520859 L7.64420958,9.86845007 L9.04420958,9.86845007 L9.04354764,28.0616023 C9.77508662,26.7579653 10.828756,25.9399453 12,25.9399453 C14.1899399,25.9399453 15.9688405,28.7997313 15.9995951,32.346505 L19.2995136,32.346 L19.2995136,25.939 L17,25.9399453 L17,23.9399453 L19.2995136,23.939 L19.2995136,21.939 L17,21.9399453 L17,19.9399453 L19.2995136,19.939 L19.2995136,16.939 L17,16.9399453 L17,14.9399453 L19.2995136,14.939 L19.2995136,11.939 L18,11.9399453 L20,4.14779322e-13 Z M14.3921611,34.3722063 L14.3418304,34.377264 C13.9531923,34.4345975 13.6880899,34.5563081 13.5359388,34.7306725 L13.4823512,34.8012452 C12.9435692,35.6241181 11.549409,35.6421561 10.7882268,34.9568131 L10.6839531,34.854133 C10.4561208,34.608474 10.1015536,34.4457382 9.60991468,34.3753985 C10.0342304,36.2708709 11.042796,37.5399453 12,37.5399453 C12.9578716,37.5399453 13.9671765,36.2691 14.3921611,34.3722063 Z M29,27.3399453 C27.7442018,27.3399453 26.4,29.5242732 26.4,32.4399453 C26.4,35.3556174 27.7442018,37.5399453 29,37.5399453 C30.0403147,37.5399453 31.1412973,36.0409249 31.4885041,33.8689131 L31.3045054,33.8691347 C31.2084944,33.9151225 31.1061797,33.9399453 31,33.9399453 C30.4477153,33.9399453 30,33.2683724 30,32.4399453 C30,31.6115182 30.4477153,30.9399453 31,30.9399453 C31.104679,30.9399453 31.2056013,30.9640713 31.3004305,31.0088186 L31.3005311,30.1403572 C30.8341321,28.4485274 29.8946329,27.3399453 29,27.3399453 Z M29,33.9399453 C29.5522847,33.9399453 30,34.6115182 30,35.4399453 C30,36.2683724 29.5522847,36.9399453 29,36.9399453 C28.4477153,36.9399453 28,36.2683724 28,35.4399453 C28,34.6115182 28.4477153,33.9399453 29,33.9399453 Z M13.5359388,32.7306725 L13.4823512,32.8012452 C12.9435692,33.6241181 11.549409,33.6421561 10.7882268,32.9568131 L10.6839531,32.854133 C10.4262018,32.576214 10.0062444,32.4044272 9.40911344,32.352489 C9.40013507,32.3815643 9.4,32.410718 9.4,32.4399453 C9.4,32.8259496 9.42355979,33.1991356 9.46735516,33.5561319 L9.23504598,33.5402567 C10.1363655,33.57584 10.8217009,33.826193 11.2705208,34.3101309 C11.6714358,34.7424155 12.5564492,34.7549285 12.813055,34.3630187 C13.1342397,33.8724785 13.7157368,33.6122621 14.5311179,33.5530979 C14.5765285,33.1977353 14.6,32.8252254 14.6,32.4399453 L14.5972917,32.3501671 C14.0669731,32.3867774 13.7193712,32.5204599 13.5359388,32.7306725 Z M28,29.9399453 C28.5522847,29.9399453 29,30.6115182 29,31.4399453 C29,32.2683724 28.5522847,32.9399453 28,32.9399453 C27.4477153,32.9399453 27,32.2683724 27,31.4399453 C27,30.6115182 27.4477153,29.9399453 28,29.9399453 Z M14.3845464,30.4740366 L14.3418304,30.4797689 C13.9531923,30.5371024 13.6880899,30.658813 13.5359388,30.8331774 L13.4823512,30.9037502 C12.9435692,31.726623 11.549409,31.744661 10.7882268,31.059318 L10.6839531,30.9566379 C10.4569208,30.7118414 10.104042,30.549387 9.61508839,30.4786478 C9.53716367,30.8173444 9.47850046,31.1769855 9.44223998,31.5531811 L9.23504598,31.5402567 C10.1363655,31.57584 10.8217009,31.826193 11.2705208,32.3101309 C11.6714358,32.7424155 12.5564492,32.7549285 12.813055,32.3630187 C13.1374853,31.8675216 13.7275155,31.6070266 14.5559081,31.5513659 C14.5211498,31.1742467 14.4622427,30.8139491 14.3845464,30.4740366 Z M12,27.3399453 C11.1846543,27.3399453 10.3320424,28.2607377 9.83426054,29.704649 C10.446397,29.8093884 10.9275248,30.042802 11.2705208,30.4126358 C11.6714358,30.8449204 12.5564492,30.8574334 12.813055,30.4655236 C13.0834357,30.0525756 13.5382909,29.8028502 14.1618543,29.6988848 C13.6655936,28.2581864 12.8142154,27.3399453 12,27.3399453 Z" id="5" fill="#FF0200" fill-rule="nonzero"></path>
    </g>
</svg>