<?xml version="1.0" encoding="UTF-8"?>
<svg width="40px" height="40px" viewBox="0 0 40 40" version="1.1" xmlns="http://www.w3.org/2000/svg" xmlns:xlink="http://www.w3.org/1999/xlink">
    <!-- Generator: Sketch 60.1 (88133) - https://sketch.com -->
    <title>8</title>
    <desc>Created with Sketch.</desc>
    <g id="页面-1" stroke="none" stroke-width="1" fill="none" fill-rule="evenodd">
        <path d="M15.27291,11.1023697 L0.492112487,14.6221394 L14.153859,39.8414187 L13.1704507,29.9909781 C24.3560787,37.3598615 33.2924298,37.3598615 39.9795041,29.9909781 L39.9795041,25.4718942 C31.3050612,32.8208106 21.7918439,32.0478378 11.4398523,23.1529758 L11.4398523,28.9042964 L5.46849798,18.5087604 L11.4398523,16.9399453 L10.8637569,20.4766429 C17.0760822,23.6468336 21.5285227,24.5389445 24.2210784,23.1529758 C28.259912,21.0740228 32.3708056,16.9284478 38.135228,5.25856564 L38.135228,0.298847958 C32.8410588,11.2711848 27.172845,17.5414082 21.1305866,19.1095181 C18.2887727,19.2083402 15.9631969,18.4851493 14.153859,16.9399453 L15.27291,11.1023697 Z" id="8" fill="#FF0200"></path>
    </g>
</svg>