<svg id="图层_1" data-name="图层 1" xmlns="http://www.w3.org/2000/svg" viewBox="0 0 48 48"><title>icon</title><path d="M19.78,19.72c-1.35,2-2.62,3.86-2.82,5.92a.48.48,0,0,0,1,.09c.18-1.83,1.39-3.61,2.67-5.49.2-.29.4-.59.59-.89a5.25,5.25,0,0,0,.22-5.76,8.37,8.37,0,0,1,3.11,6.05.48.48,0,0,0,.28.38.47.47,0,0,0,.47,0,5.63,5.63,0,0,0,2.25-3.39c1.17,1.65,3.25,5.25,2.34,9.12a.47.47,0,0,0,.36.57h.11a.48.48,0,0,0,.47-.37C32.14,20.2,27.69,15.25,27.5,15a.49.49,0,0,0-.54-.13.47.47,0,0,0-.3.46,4.56,4.56,0,0,1-1.3,3.29,9.29,9.29,0,0,0-5.68-7.14.48.48,0,0,0-.57.22.45.45,0,0,0,.1.58c.14.13,3.49,3,1.17,6.52Z"/><path d="M24.2,22.66a.47.47,0,0,0-.38.19,9.94,9.94,0,0,0-2.18,5.46.48.48,0,0,0,1,0A8.51,8.51,0,0,1,24.2,24a7.37,7.37,0,0,1,1.19,3.92.48.48,0,0,0,.48.48.47.47,0,0,0,.49-.46,8.62,8.62,0,0,0-1.77-5.06A.47.47,0,0,0,24.2,22.66Z"/><path d="M38,30.5H10v1h.68l3.87,4H10v1H38v-1H36.88L33,31.5h5Zm-20.8,5-3.86-4h7.18l3.87,4Zm17,0H27l-3.87-4h7.19Z"/></svg>