<?xml version="1.0" encoding="UTF-8"?>
<svg width="32px" height="32px" viewBox="0 0 32 32" version="1.1" xmlns="http://www.w3.org/2000/svg" xmlns:xlink="http://www.w3.org/1999/xlink">
    <!-- Generator: Sketch 60.1 (88133) - https://sketch.com -->
    <title>weitiao</title>
    <desc>Created with Sketch.</desc>
    <g id="页面-1" stroke="none" stroke-width="1" fill="none" fill-rule="evenodd">
        <g id="1.3首页-标绘-编辑火场" transform="translate(-1804.000000, -737.000000)" fill="#FFFFFF" fill-rule="nonzero">
            <g id="tiaozheng" transform="translate(1792.000000, 725.000000)">
                <g id="编组-12" transform="translate(12.000000, 12.000000)">
                    <g id="编组-11" transform="translate(5.000000, 5.000000)">
                        <path d="M0.169605256,21.6936787 L0.93748434,15.7793759 C0.965906233,15.5604669 1.06596289,15.357114 1.22205418,15.2010227 L11.7159701,4.70710678 C12.1064944,4.31658249 12.7396594,4.31658249 13.1301837,4.70710678 L18.2928932,9.8698163 C18.6834175,10.2603406 18.6834175,10.8935056 18.2928932,11.2840299 L7.68351648,21.8934066 L7.68351648,21.8934066 L1.30383279,22.8122197 C0.757188259,22.8909484 0.250223097,22.5116277 0.171494401,21.9649832 C0.158542658,21.8750541 0.157907095,21.7837794 0.169605256,21.6936787 Z" id="路径"></path>
                        <path d="M19.9353057,7.58075618 L15.3498454,2.99529588 C14.9593211,2.60477158 14.9593211,1.9716066 15.3498454,1.58108231 C15.3549069,1.57602078 15.3600227,1.57101374 15.3651917,1.56606206 L16.2932158,0.677062819 C16.6859931,0.300802442 17.3074756,0.307475571 17.6920831,0.692083068 L22.2775434,5.27754337 C22.6680677,5.66806766 22.6680677,6.30123264 22.2775434,6.69175693 C22.2724818,6.69681846 22.2673661,6.7018255 22.2621971,6.70677718 L21.334173,7.59577643 C20.9413957,7.97203681 20.3199132,7.96536368 19.9353057,7.58075618 Z" id="路径"></path>
                    </g>
                </g>
            </g>
        </g>
    </g>
</svg>