<?xml version="1.0" encoding="UTF-8"?>
<svg width="16px" height="16px" viewBox="0 0 16 16" version="1.1" xmlns="http://www.w3.org/2000/svg" xmlns:xlink="http://www.w3.org/1999/xlink">
    <!-- Generator: Sketch 60.1 (88133) - https://sketch.com -->
    <title>路径</title>
    <desc>Created with Sketch.</desc>
    <g id="页面-1" stroke="none" stroke-width="1" fill="none" fill-rule="evenodd" opacity="0.900000036">
        <g id="时间线-点击自动播放备份-4" transform="translate(-1221.000000, -223.000000)" fill="#FFFFFF" fill-rule="nonzero">
            <g id="视频弹窗" transform="translate(669.000000, 209.000000)">
                <g id="关闭" transform="translate(538.000000, 0.000000)">
                    <g id="guanbi-3" transform="translate(14.000000, 14.000000)">
                        <path d="M15.7082485,1.53813905 C15.9949808,1.13362325 15.9603608,0.721381017 15.6355723,0.348426417 C15.3017465,-0.0349161685 14.81222,-0.101216557 14.3617031,0.215845497 C14.0748119,0.417726009 13.8315582,0.684615877 13.5811143,0.93482139 C11.7432548,2.7712111 9.90847389,4.6107192 7.9484413,6.57373113 C6.03788573,4.6576737 4.23293806,2.84668789 2.42669934,1.03697325 C2.17627533,0.786092411 1.93790776,0.518249165 1.66148399,0.299247341 C1.16856104,-0.0911860831 0.65200196,-0.0728531638 0.289832609,0.331821526 C-0.079924146,0.745056871 -0.0632596661,1.19575254 0.257913878,1.62201759 C0.446268168,1.87200462 0.68173585,2.08762985 0.904193711,2.31056442 C2.49111281,3.90042314 4.08132906,5.48704431 5.6672749,7.07785642 C5.940044,7.35153919 6.19767803,7.6403769 6.49990293,7.96224563 C6.18889889,8.29255584 5.92878208,8.58280378 5.65396716,8.85841318 C4.03997574,10.4769332 2.42131665,12.0908055 0.807782065,13.7098419 C0.585979658,13.9323793 0.347175097,14.1515598 0.181622748,14.413643 C-0.0759914014,14.8214957 -0.0414905862,15.2476217 0.308165528,15.6009126 C0.658397632,15.9546802 1.0832723,15.993372 1.49241601,15.7341887 C1.75436015,15.5682788 1.97425578,15.3303681 2.19657461,15.108228 C6.51771941,10.790718 10.8367985,6.47112244 15.1545667,2.15027558 C15.3490585,1.9556448 15.550224,1.76109348 15.7082485,1.53813905 Z" id="路径" opacity="0.849999964"></path>
                        <path d="M13.2995661,11.9107536 C12.6876281,11.3000472 12.1002003,10.6613548 11.4530863,10.0903531 C10.8492721,9.55754662 10.0027007,9.73513554 9.84974107,10.4342888 C9.77903125,10.7575678 9.90130363,11.2521989 10.1258272,11.4896925 C11.4213463,12.8597351 12.7713081,14.1784733 14.110286,15.5070632 C14.2458264,15.6416104 14.4178936,15.7627507 14.59584,15.8268464 C15.2444636,16.0606456 15.9145782,15.5670672 15.883295,14.697396 C15.7797131,14.5519045 15.6113006,14.2450914 15.3776602,14.0006659 C14.6990644,13.2905287 13.9950051,12.6047229 13.2995661,11.9107536 Z" id="路径"></path>
                    </g>
                </g>
            </g>
        </g>
    </g>
</svg>