<?xml version="1.0" encoding="UTF-8"?>
<svg width="32px" height="32px" viewBox="0 0 32 32" version="1.1" xmlns="http://www.w3.org/2000/svg" xmlns:xlink="http://www.w3.org/1999/xlink">
    <title>视频</title>
    <g id="页面-1" stroke="none" stroke-width="1" fill="none" fill-rule="evenodd">
        <g id="Web1920" transform="translate(-259.000000, -156.000000)" fill="#FFFFFF" fill-rule="nonzero">
            <g id="左栏" transform="translate(18.000000, 107.000000)">
                <g id="列表" transform="translate(79.000000, 49.000000)">
                    <g id="视频" transform="translate(1.000000, 0.000000)">
                        <g transform="translate(161.000000, 0.000000)">
                            <path d="M26.8713739,8.97777778 C26.2636522,8.71111111 25.569113,8.88888889 25.1350261,9.33333333 L21.9227826,12 L21.9227826,10.6666667 C21.9227826,9.15555556 20.7941565,8 19.3182609,8 L6.60452174,8 C5.12862609,8 4,9.15555556 4,10.6666667 L4,21.3333333 C4,22.8444444 5.12862609,24 6.60452174,24 L19.3182609,24 C20.7941565,24 21.9227826,22.8444444 21.9227826,21.3333333 L21.9227826,19.9111111 L25.1350261,22.5777778 C25.6559304,23.0222222 26.2636522,23.2 26.8713739,22.9333333 C27.565913,22.6666667 28,21.9555556 28,21.0666667 L28,10.8444444 C28,10.0444444 27.565913,9.33333333 26.8713739,8.97777778 Z M19.8608696,21.3333333 C19.8608696,21.8666667 19.5276888,22.2222222 19.0279176,22.2222222 L6.86773455,22.2222222 C6.36796339,22.2222222 6.03478261,21.8666667 6.03478261,21.3333333 L6.03478261,10.6666667 C6.03478261,10.1333333 6.36796339,9.77777778 6.86773455,9.77777778 L19.0279176,9.77777778 C19.5276888,9.77777778 19.8608696,10.1333333 19.8608696,10.6666667 L19.8608696,21.3333333 Z M26.1913043,21.1555556 L27.1913043,21.2444444 L21.9227826,17.6 L21.9227826,14.3111111 L26.1913043,10.6666667 L26.1913043,21.1555556 Z" id="形状"></path>
                        </g>
                    </g>
                </g>
            </g>
        </g>
    </g>
</svg>