<?xml version="1.0" encoding="UTF-8"?>
<svg width="32px" height="32px" viewBox="0 0 32 32" version="1.1" xmlns="http://www.w3.org/2000/svg"
    xmlns:xlink="http://www.w3.org/1999/xlink">
    <!-- Generator: Sketch 60.1 (88133) - https://sketch.com -->
    <title>开始绘制</title>
    <desc>Created with Sketch.</desc>
    <g id="页面-1" stroke="none" stroke-width="1" fill="none" fill-rule="evenodd">
        <g id="绘制火场" transform="translate(-54.000000, -119.000000)" fill="#FFFFFF" fill-rule="nonzero">
            <g id="开始绘制" transform="translate(42.000000, 107.000000)">
                <g id="kaishihuizhi" transform="translate(12.000000, 12.000000)">
                    <path
                        d="M19.9860305,7.4468702 L24.7295311,12.1903046 L11.2629374,25.6568983 L6.51943672,20.9133976 L19.9860305,7.4468702 Z M9.49385008,27.4195517 L10.3256458,26.5877228 L5.58211196,21.8442222 L4.40122802,23.0251061 L4.40796041,23.0318384 L3.86015123,23.5796144 C3.0513716,24.3883609 3.05143793,25.6996472 3.86015123,26.5083605 L5.67500536,28.3232146 C6.48368549,29.1318947 7.79497176,29.1319611 8.60368506,28.3232146 L9.36159053,27.565276 C9.40794502,27.5188089 9.45208064,27.4701801 9.49385008,27.4195517 L9.49385008,27.4195517 Z M20.9436186,6.61795981 L27.2479011,4.92873233 L25.5586405,11.2329485 L20.9436186,6.61795981 Z M8.80817661,3.30327993 C8.40383654,2.89890669 7.74817683,2.89890669 7.34383677,3.30327993 L3.30325505,7.34386165 C2.89891498,7.74823489 2.89891498,8.40382827 3.30325505,8.80820152 L8.86482136,14.3697678 C9.26919073,14.7741266 9.92479182,14.7741266 10.3291612,14.3697678 L14.3697098,10.3291861 C14.774083,9.92481286 14.774083,9.26921948 14.3697098,8.86484627 L8.80817661,3.30327993 Z M9.53789236,6.09346519 L8.62331837,7.00803918 C8.55000584,7.08134579 8.44315365,7.10997212 8.343012,7.08313491 C8.24287035,7.0562977 8.16465313,6.97807416 8.13782401,6.87793034 C8.11099488,6.77778652 8.13962985,6.67093665 8.21294238,6.59763004 L9.12751637,5.68305605 C9.24084772,5.56973385 9.42458673,5.56974127 9.53790893,5.68307263 C9.65123113,5.79640398 9.65122371,5.98014299 9.53789236,6.09346519 Z M11.8360841,8.39165694 L10.9215101,9.30623093 C10.8081788,9.41956228 10.6244323,9.41956228 10.511101,9.30623093 C10.3977696,9.19289957 10.3977696,9.00915314 10.511101,8.89582179 L11.425675,7.9812478 C11.5390063,7.86791645 11.7227527,7.86791645 11.8360841,7.9812478 C11.9494155,8.09457916 11.9494155,8.27832559 11.8360841,8.39165694 Z M23.1351869,17.597159 C22.7308468,17.1927858 22.0751871,17.1927858 21.6708471,17.597159 L17.6302654,21.6377076 C17.2259253,22.0420808 17.2259253,22.6977074 17.6302654,23.1020474 L23.1918317,28.6636138 C23.596201,29.0679726 24.2518021,29.0679726 24.6561715,28.6636138 L28.6967201,24.623032 C29.1010933,24.218692 29.1010933,23.5630654 28.6967201,23.1586922 L23.1351869,17.597159 Z M23.8649027,20.3873111 L22.9503287,21.3019183 C22.8369973,21.4152405 22.6532583,21.415233 22.5399361,21.3019017 C22.4266139,21.1885703 22.4266214,21.0048313 22.5399527,20.8915091 L23.4545267,19.9769351 C23.5276419,19.9026825 23.6349571,19.8733349 23.7356832,19.9000468 C23.8364094,19.9267588 23.915079,20.0054284 23.941791,20.1061546 C23.9685029,20.2068808 23.9391553,20.3141959 23.8649027,20.3873111 L23.8649027,20.3873111 Z M26.1630944,22.6855029 L25.2485204,23.6000769 C25.1351982,23.7134082 24.9514592,23.7134156 24.8381279,23.6000934 C24.7247965,23.4867712 24.7247891,23.3030322 24.8381113,23.1897009 L25.7526853,22.2750937 C25.866036,22.1618091 26.0497437,22.1618091 26.1630944,22.2750937 C26.2763973,22.3884369 26.2763973,22.5721597 26.1630944,22.6855029 L26.1630944,22.6855029 Z"
                        id="形状备份"></path>
                </g>
            </g>
        </g>
    </g>
</svg>