<?xml version="1.0" encoding="UTF-8"?>
<svg width="32px" height="32px" viewBox="0 0 32 32" version="1.1" xmlns="http://www.w3.org/2000/svg" xmlns:xlink="http://www.w3.org/1999/xlink">
    <title>操作</title>
    <defs>
        <polygon id="path-1" points="-1.8583525e-15 0 8.46176471 0 8.46176471 4.94117647 -1.8583525e-15 4.94117647"></polygon>
        <polygon id="path-3" points="-9.29176138e-16 0 8.46176471 0 8.46176471 4.94117647 -9.29176138e-16 4.94117647"></polygon>
    </defs>
    <g id="页面-1" stroke="none" stroke-width="1" fill="none" fill-rule="evenodd">
        <g id="Web1920" transform="translate(-299.000000, -156.000000)">
            <g id="左栏" transform="translate(18.000000, 107.000000)">
                <g id="列表" transform="translate(79.000000, 49.000000)">
                    <g id="操作" transform="translate(1.000000, 0.000000)">
                        <g transform="translate(201.000000, 0.000000)">
                            <g id="方向操作" transform="translate(16.500000, 16.500000) scale(1, -1) translate(-16.500000, -16.500000) translate(6.000000, 6.000000)">
                                <path d="M1.76680585,10.4691125 L4.72682269,7.49393987 C5.01262095,7.20667905 5.01262909,6.74094172 4.72683082,6.4536809 C4.44103256,6.16642009 3.97765833,6.16642009 3.69185194,6.4536809 L0.214345648,9.94898306 C-0.0714444835,10.2362439 -0.071452615,10.7019894 0.214345648,10.9892584 L3.69185194,14.4845605 C3.97765833,14.7718132 4.44103256,14.7718132 4.72683082,14.4845605 C5.01262909,14.1972915 5.01262095,13.731546 4.72683082,13.4442852 L1.76680585,10.4691125 Z" id="Fill-1" fill="#FFFFFF"></path>
                                <g id="编组" transform="translate(6.300000, 0.000000)">
                                    <mask id="mask-2" fill="white">
                                        <use xlink:href="#path-1"></use>
                                    </mask>
                                    <g id="Clip-4"></g>
                                    <path d="M1.2557101,4.72682774 L4.23088133,1.76680227 L7.20605257,4.72682774 C7.49331324,5.01262605 7.95905853,5.01262605 8.2463192,4.72682774 C8.53357987,4.44103756 8.53357987,3.97765512 8.2463192,3.69185681 L4.75101056,0.214341821 C4.46375806,-0.0714483578 3.9980046,-0.0714483578 3.7107521,0.214341821 L0.215451636,3.69185681 C-0.0718172119,3.97765512 -0.0718172119,4.44102943 0.215451636,4.72682774 C0.502704137,5.01262605 0.968449422,5.01262605 1.2557101,4.72682774" id="Fill-3" fill="#FFFFFF" mask="url(#mask-2)"></path>
                                </g>
                                <g id="编组" transform="translate(6.300000, 16.058824)">
                                    <mask id="mask-4" fill="white">
                                        <use xlink:href="#path-3"></use>
                                    </mask>
                                    <g id="Clip-6"></g>
                                    <path d="M7.20605374,0.214353806 L4.23088286,3.17437915 L1.25571199,0.214345674 C0.968451348,-0.0714444923 0.502706119,-0.0714526239 0.21544548,0.214345674 C-0.0718151599,0.500143973 -0.0718151599,0.96352639 0.21544548,1.24931656 L3.7107537,4.72683141 C3.99800616,5.0126297 4.46375956,5.0126297 4.75101203,4.72683141 L8.24631207,1.24931656 C8.53358089,0.963518258 8.53358089,0.500143973 8.24632025,0.214345674 C7.95905961,-0.0714526239 7.49331438,-0.0714444923 7.20605374,0.214353806" id="Fill-5" fill="#FFFFFF" mask="url(#mask-4)"></path>
                                </g>
                                <path d="M20.7856544,9.94898605 L17.3081488,6.45368685 C17.0223425,6.16641811 16.5589684,6.16641811 16.2731783,6.45368685 C15.9873719,6.74094742 15.9873719,7.20669254 16.2731783,7.49394494 L19.2331945,10.4691233 L16.2731864,13.4442853 C15.9873719,13.731554 15.9873719,14.1972909 16.2731783,14.4845515 C16.5589765,14.7718121 17.0223425,14.7718203 17.3081488,14.4845515 L20.7856544,10.9892523 C21.0714445,10.7019917 21.0714526,10.2362384 20.7856544,9.94898605" id="Fill-7" fill="#FFFFFF"></path>
                                <path d="M8.47510429,8.47510429 C7.35678342,9.59342517 7.35678342,11.4065748 8.47510429,12.5248957 C9.59342517,13.6432166 11.4065748,13.6432166 12.5248957,12.5248957 C13.6432166,11.4065748 13.6432166,9.59342517 12.5248957,8.47510429 C11.4065748,7.35678342 9.59342517,7.35678342 8.47510429,8.47510429" id="Fill-9" fill="#FFFFFF"></path>
                            </g>
                        </g>
                    </g>
                </g>
            </g>
        </g>
    </g>
</svg>