<?xml version="1.0" encoding="UTF-8"?>
<svg width="32px" height="32px" viewBox="0 0 32 32" version="1.1" xmlns="http://www.w3.org/2000/svg"
    xmlns:xlink="http://www.w3.org/1999/xlink">
    <!-- Generator: Sketch 60.1 (88133) - https://sketch.com -->
    <title>删除</title>
    <desc>Created with Sketch.</desc>
    <g id="页面-1" stroke="none" stroke-width="1" fill="none" fill-rule="evenodd">
        <g id="1.3首页-标绘-编辑火场" transform="translate(-1704.000000, -737.000000)" fill="#FFFFFF" fill-rule="nonzero">
            <g id="关-闭-" transform="translate(1692.000000, 725.000000)">
                <g id="编组-4" transform="translate(12.000000, 12.000000)">
                    <path
                        d="M25.1,3 C27.253905,3 29,4.746095 29,6.9 C29,9.053905 27.253905,10.8 25.1,10.8 C23.448935,10.8 22.03746,9.7740075 21.46845,8.3248 C19.452735,8.759 17.56845,9.54758 15.8841375,10.6220625 C16.16575,11.16127 16.325,11.774545 16.325,12.425 C16.325,14.578905 14.578905,16.325 12.425,16.325 C11.774545,16.325 11.1613025,16.16575 10.6220625,15.8841375 C9.54758,17.5684825 8.759,19.452735 8.3248,21.46845 C9.7740075,22.0374925 10.8,23.448935 10.8,25.1 C10.8,27.253905 9.053905,29 6.9,29 C4.746095,29 3,27.253905 3,25.1 C3,23.1694675 4.4027,21.5665675 6.2445075,21.25486 C6.7475425,18.7755325 7.72693,16.4695275 9.0830575,14.4364575 C8.7288075,13.84915 8.525,13.160865 8.525,12.425 C8.525,10.271095 10.271095,8.525 12.425,8.525 C13.1608975,8.525 13.84915,8.7288075 14.4364575,9.0830575 C16.46956,7.72693 18.775565,6.74751 21.25486,6.2445075 C21.5665675,4.4027 23.1694675,3 25.1,3 Z M6.9,23.28 C5.89484,23.28 5.08,24.09484 5.08,25.1 C5.08,26.10516 5.89484,26.92 6.9,26.92 C7.90516,26.92 8.72,26.10516 8.72,25.1 C8.72,24.09484 7.90516,23.28 6.9,23.28 Z M28.74,21.59 C28.883,21.59 29,21.707 29,21.85 L29,23.41 C29,23.553 28.883,23.67 28.74,23.67 L19.64,23.67 C19.497,23.67 19.38,23.553 19.38,23.41 L19.38,21.85 C19.38,21.707 19.497,21.59 19.64,21.59 L28.74,21.59 Z M25.1,5.08 C24.09484,5.08 23.28,5.89484 23.28,6.9 C23.28,7.90516 24.09484,8.72 25.1,8.72 C26.10516,8.72 26.92,7.90516 26.92,6.9 C26.92,5.89484 26.10516,5.08 25.1,5.08 Z"
                        id="形状"></path>
                </g>
            </g>
        </g>
    </g>
</svg>