<svg id="图层_1" data-name="图层 1" xmlns="http://www.w3.org/2000/svg" viewBox="0 0 48 48"><title>icon</title><path d="M37.42,35.05h-.64v-1.8a.53.53,0,0,0-.53-.53.52.52,0,0,0-.53.52v1.81H34.45V20.42a.54.54,0,0,0-.53-.54H23.42a.54.54,0,0,0-.54.54V35.05H21.62V18.62h14.1v10a.53.53,0,1,0,1.06,0V18.08a.55.55,0,0,0-.15-.38.52.52,0,0,0-.38-.15H21.08a.59.59,0,0,0-.38.16.51.51,0,0,0-.15.37v17h-.63a.54.54,0,0,0-.54.53v2.34a.54.54,0,0,0,.54.53h17.5a.53.53,0,0,0,.53-.53V35.58A.53.53,0,0,0,37.42,35.05ZM24,28.53h6.47a.53.53,0,1,0,0-1.06H24V21h9.43v14.1H24Zm12.93,8.85H20.45V36.12H36.88Z"/><path d="M19.26,27.58l-4.55-3.5a.52.52,0,0,0-.56-.06.54.54,0,0,0-.29.48v1.22H10.58a.53.53,0,1,0,0,1.06h3.81a.53.53,0,0,0,.53-.53v-.67L18.06,28l0,0-3.09,2.38v-.67a.53.53,0,0,0-.53-.53H10.58a.53.53,0,1,0,0,1.06h3.28V31.5a.54.54,0,0,0,.29.48.52.52,0,0,0,.56-.06l4.55-3.5a.53.53,0,0,0,.21-.42A.54.54,0,0,0,19.26,27.58Z"/><path d="M36.25,30.38a.54.54,0,1,0,.53.54A.54.54,0,0,0,36.25,30.38Z"/><path d="M21.67,15.28H24a.53.53,0,1,0,0-1.06H22.2V13H24a.54.54,0,0,0,0-1.07H22.2V10.62H24a.54.54,0,0,0,0-1.07H21.67a.54.54,0,0,0-.54.53v4.67A.54.54,0,0,0,21.67,15.28Z"/><path d="M25.86,14.51a.49.49,0,0,0,0,.41.57.57,0,0,0,.26.31.69.69,0,0,0,.24,0,.53.53,0,0,0,.48-.29l.69-1.38L28.19,15a.53.53,0,0,0,.48.29.69.69,0,0,0,.24,0,.53.53,0,0,0,.23-.72l-1-2.09v0l1-2.07a.53.53,0,0,0-.95-.48l-.69,1.38-.69-1.38a.53.53,0,0,0-.72-.23.52.52,0,0,0-.23.71l1,2.1v0Z"/><path d="M33.33,10.62H34v4.13a.53.53,0,1,0,1.06,0V10.62h.64a.54.54,0,0,0,0-1.07H33.33a.54.54,0,0,0,0,1.07Z"/><path d="M31,15.28a.53.53,0,0,0,.53-.53V10.08a.53.53,0,0,0-1.06,0v4.67A.53.53,0,0,0,31,15.28Z"/></svg>