<svg id="图层_1" data-name="图层 1" xmlns="http://www.w3.org/2000/svg" xmlns:xlink="http://www.w3.org/1999/xlink" viewBox="0 0 32 32"><defs><style>.cls-1{fill:none;}.cls-2{clip-path:url(#clip-path);}</style><clipPath id="clip-path"><path class="cls-1" d="M-1.31,130.22a.94.94,0,0,1-1.36,0l-5.42-6-5.42,6a.93.93,0,0,1-1.18-.2,1.22,1.22,0,0,1-.18-1.31l6.06-6.87a1.07,1.07,0,0,1,.72-.33,1,1,0,0,1,.71.33l6.07,6.8a1.17,1.17,0,0,1,.3.79A1.17,1.17,0,0,1-1.31,130.22Zm-1.36-6-5.42-6-5.42,6a.94.94,0,0,1-1.18-.19,1.23,1.23,0,0,1-.18-1.31l6.06-6.87a1,1,0,0,1,.72-.33,1,1,0,0,1,.71.33l6.07,6.79a1.19,1.19,0,0,1,.3.79,1.16,1.16,0,0,1-.3.79A.92.92,0,0,1-2.67,124.19Z"/></clipPath></defs><title>SVG</title><path d="M12.86,14.88a1.12,1.12,0,1,0,0,2.23h6.72a1.12,1.12,0,1,0,0-2.23Z"/><path d="M28.15,13a12.28,12.28,0,0,0-7-8.22l2.59,12.13Z"/><path d="M19.59,4.15A12.34,12.34,0,0,0,8.93,6.07l12,4Z"/><path d="M4.29,19.06a12.37,12.37,0,0,0,7,8.21L8.63,15.6Z"/><path d="M28.46,14.63l-9,8.3,5.37,1.9a12.26,12.26,0,0,0,3.72-9.27Q28.51,15.1,28.46,14.63Z"/><path d="M12.85,27.84a12.53,12.53,0,0,0,3.8.46,12.34,12.34,0,0,0,6.85-2.37L11.55,22Z"/><path d="M7.64,7.17A12.23,12.23,0,0,0,4,17.38l9.6-8.45Z"/></svg>