<svg id="图层_1" data-name="图层 1" xmlns="http://www.w3.org/2000/svg" viewBox="0 0 32 32"><title>SVG</title><path d="M20.7,16a1.12,1.12,0,0,0-1.12-1.12H17.34V12.64a1.12,1.12,0,1,0-2.24,0v2.24H12.86a1.12,1.12,0,1,0,0,2.24H15.1v2.24a1.12,1.12,0,1,0,2.24,0V17.11h2.24A1.12,1.12,0,0,0,20.7,16Z"/><path d="M28.15,13a12.28,12.28,0,0,0-7-8.22l2.59,12.13Z"/><path d="M19.59,4.15A12.34,12.34,0,0,0,8.93,6.07l12,4Z"/><path d="M4.29,19.06a12.37,12.37,0,0,0,7,8.21L8.63,15.6Z"/><path d="M28.46,14.63l-9,8.3,5.37,1.9a12.26,12.26,0,0,0,3.72-9.27Q28.51,15.1,28.46,14.63Z"/><path d="M12.85,27.84a12.53,12.53,0,0,0,3.8.46,12.34,12.34,0,0,0,6.85-2.37L11.55,22Z"/><path d="M7.64,7.17A12.23,12.23,0,0,0,4,17.38l9.6-8.45Z"/></svg>