<svg id="图层_1" data-name="图层 1" xmlns="http://www.w3.org/2000/svg" xmlns:xlink="http://www.w3.org/1999/xlink"
  viewBox="0 0 32 32">
  <defs>
    <style>
      .cls-1 {
        fill: none;
      }

      .cls-2 {
        clip-path: url(#clip-path);
      }
    </style>
    <clipPath id="clip-path">
      <path class="cls-1"
        d="M1009.7-183.7h-9.23v9.24a1.63,1.63,0,0,1-1.64,1.63,1.63,1.63,0,0,1-1.63-1.63v-9.24H988a1.63,1.63,0,0,1-1.64-1.63A1.63,1.63,0,0,1,988-187h9.23v-9.24a1.63,1.63,0,0,1,1.63-1.63,1.63,1.63,0,0,1,1.64,1.63V-187h9.23a1.62,1.62,0,0,1,1.63,1.63,1.62,1.62,0,0,1-1.63,1.63Z" />
    </clipPath>
  </defs>
  <title>应急iconGIS</title>
  <polygon class="cls-1" points="-1742.55 -219 -1794 -219 -1794 861 126 861 126 814.5 -1742.55 814.5 -1742.55 -219" />
  <path
    d="M28.68,15.58,16.8,4.31a1.21,1.21,0,0,0-1.63,0L3.36,15.57l-.1.1h0a1.16,1.16,0,0,0-.26.73,1.13,1.13,0,0,0,.35.83,1.21,1.21,0,0,0,1.65,0l1-1v8.44a3.25,3.25,0,0,0,.49,1.77A3.22,3.22,0,0,0,9.22,28H22.71a3.29,3.29,0,0,0,2.39-.9,2.06,2.06,0,0,0,.3-.45l.08-.14A3.47,3.47,0,0,0,26,24.7V16.28l1,1a1.21,1.21,0,0,0,1.67-.06A1.17,1.17,0,0,0,28.68,15.58ZM14.74,21.27a.79.79,0,0,1,0-.38,1,1,0,0,1,.25,0h1.8c.35,0,.43,0,.43.47v4.3H14.74Zm2.1-2.76H15a2.52,2.52,0,0,0-2.66,2.76v4.37H9.22a.81.81,0,0,1-.84-.9V14L16,6.8l7.64,7.25V24.7c0,.7-.23.94-.92.94H19.64v-4.3A2.67,2.67,0,0,0,16.84,18.51Z" />
</svg>
