<?xml version="1.0" standalone="no"?>
<!DOCTYPE svg><svg viewBox="0 0 1024 1024">
  <path
    d="M742.67 813.42c-22.45 23.71-58.85 23.71-81.3 0-44.9-47.42-117.69-47.42-162.6 0-22.45 23.71-58.84 23.71-81.3 0-44.9-47.42-117.69-47.41-162.59 0l-2.61 1.55c-26.46 15.7-58.18 10.84-83.95-5.94-11.08-7.21-25.79-5.75-35.39 4.39-11.22 11.85-11.23 31.07 0 42.93 44.9 47.42 117.69 47.42 162.6 0v-0.01c22.45-23.71 58.85-23.71 81.3 0.01 44.9 47.41 117.69 47.42 162.6-0.01v0.01c22.45-23.71 58.84-23.72 81.3-0.01v0.01c44.9 47.41 117.69 47.42 162.6-0.01 11.22-11.86 11.22-31.07 0-42.93-11.23-11.85-29.43-11.84-40.66 0.01zM745.51 477.57c40.24 0 154.03-42.54 154.03-195.55 0-1.53-0.01-3.05-0.02-4.55-0.87-85.3-72.31-153.34-158.56-153.34H577.34c-66.21 0-119.88 79.96-119.88 178.59 0 0.9 0.08 1.78 0.09 2.68-101.13 48.1-203.93 147.49-245.14 349.83-14.09-0.47-28.06-6.24-38.82-17.6-11.22-11.85-29.42-11.85-40.65 0-11.22 11.85-11.23 31.07 0 42.93 44.9 47.42 117.69 47.42 162.6 0v-0.01c22.45-23.71 58.85-23.71 81.3 0.01 44.9 47.41 117.69 47.42 162.6-0.01v0.01c22.45-23.71 58.84-23.72 81.3-0.01v0.01c44.9 47.41 117.69 47.42 162.6-0.01 11.22-11.86 11.22-31.07 0-42.93-11.23-11.86-29.43-11.85-40.65 0-22.45 23.71-58.85 23.71-81.3 0-24.65-26.03-57.66-37.24-89.9-34.69l0.15-1.12c9.23-70.28 70.19-122.84 141.85-123.94 13.07-0.18 24.29-0.3 32.02-0.3z m-266.1-181.82c2.46-77.51 45.3-139.28 97.93-139.28 44.76 0 82.44 44.66 94.26 105.67-40.9-1.39-114.57 1.99-192.19 33.61z"
    p-id="910"></path>
</svg>
