<?xml version="1.0" encoding="UTF-8"?>
<svg width="44px" height="44px" viewBox="0 0 44 44" version="1.1" xmlns="http://www.w3.org/2000/svg"
    xmlns:xlink="http://www.w3.org/1999/xlink">
    <!-- Generator: Sketch 60.1 (88133) - https://sketch.com -->
    <title>道路</title>
    <desc>Created with Sketch.</desc>
    <g id="应急资源" stroke="none" stroke-width="1" fill="none" fill-rule="evenodd">
        <g id="icon2" transform="translate(-342.000000, -155.000000)" fill="#FFFFFF" fill-rule="nonzero">
            <g id="编组-5" transform="translate(342.000000, 155.000000)">
                <path
                    d="M11.7746678,12.9033731 C12.0015778,12.2399188 12.1978242,11.7347198 12.4124687,11.3390819 C12.6087152,10.9617043 12.8233597,10.6756277 13.062535,10.4808521 C13.289445,10.2982501 13.5470184,10.1826021 13.8352554,10.1217347 C14.1234923,10.0608674 14.4730563,10.0304337 14.8962126,10 L18.7414161,10 L14.8962126,33.8904388 L9.82446894,33.8904388 C8.46300933,33.8904388 7.58603309,33.4095866 7.22420373,32.4661425 C6.86237438,31.5226985 6.93596679,30.1714431 7.46337907,28.4123764 C7.6473601,27.8402232 7.84360653,27.1219883 8.10117997,26.2637586 C8.35875341,25.4055288 8.59792875,24.4742582 8.87390029,23.4699467 C9.14373913,22.4778088 9.41971067,21.4430637 9.70794762,20.3900583 C9.97778646,19.3248795 10.253758,18.3205681 10.5235968,17.3588638 C10.7934357,16.3971595 11.0203456,15.5267563 11.2349902,14.7476541 C11.443502,13.9685519 11.6213503,13.3537915 11.7746678,12.9033731 L11.7746678,12.9033731 Z M23.1201646,14.0476794 L20.6977477,14.0476794 L20.8939941,10.0365204 L22.8932547,10.0365204 L23.1201646,14.0476794 Z M23.5739845,24.0299265 L20.2439278,24.0299265 L20.6057572,16.0563023 L23.2244205,16.0563023 L23.5739845,24.0299265 Z M23.6475769,26.0263759 L24.0094062,34 L19.7717099,34 L20.1335392,26.0263759 L23.6475769,26.0263759 Z M36.5691778,28.8201877 C36.7224953,29.3010398 36.8390166,29.8427593 36.9310071,30.427086 C37.0229976,31.0114126 37.0229976,31.5653056 36.9310071,32.0765914 C36.8390166,32.5878773 36.6427702,33.0200355 36.3238697,33.3669795 C36.0049693,33.7139234 35.5204859,33.8904388 34.8888177,33.8904388 L28.8665054,33.8904388 L24.9967711,10.0060867 L28.0999178,10.0060867 C29.2038039,10.0060867 30.1298418,10.2434694 30.884164,10.7243216 C31.6384862,11.2051737 32.2026947,12.075577 32.6074529,13.3233578 C32.7423724,13.712909 32.9079553,14.3276693 33.1042017,15.1554654 L33.8278604,17.9797109 C34.0854339,19.0327162 34.3552727,20.1283287 34.6435097,21.2665483 C34.9133485,22.4047679 35.1709219,23.4760335 35.41623,24.4803449 L36.1092252,27.1706822 C36.3116043,27.9619579 36.4649218,28.5036774 36.5691778,28.8201877 L36.5691778,28.8201877 Z"
                    id="daolu1"></path>
            </g>
        </g>
    </g>
</svg>