<?xml version="1.0"  ?>
<!DOCTYPE svg><svg viewBox="0 0 1106 1024">
  <path
    d="M1106.880694 384.277657L745.787419 0h-109.535792l73.440347 83.29718 204.633406 217.683297H387.470716l508.94577 639.722343 61.084599 83.29718h111.618221L560.173536 384.277657h546.707158z">
  </path>
  <path
    d="M752.173536 242.950108L637.223427 83.29718l-60.251627-83.29718h-102.316702l114.950108 159.652928H204.494577L0 1024h83.991323l21.240781-83.29718 165.206074-697.752712h481.735358zM735.652928 923.210412l-41.64859-16.659436a180.477223 180.477223 0 0 0-128.555314 0l-41.64859 16.659436a98.707158 98.707158 0 0 1-66.08243 0l-41.64859-16.659436a180.477223 180.477223 0 0 0-128.555314 0l-53.86551 21.796096a41.64859 41.64859 0 1 0 31.236443 77.18872l53.865509-21.796096a98.707158 98.707158 0 0 1 66.08243 0l41.64859 16.659436a180.477223 180.477223 0 0 0 128.555314 0l41.64859-16.659436a98.707158 98.707158 0 0 1 66.08243 0l41.64859 16.659436a41.64859 41.64859 0 1 0 31.236442-77.18872z">
  </path>
  <path
    d="M470.906725 764.112798l-41.648591-14.715835a197.691974 197.691974 0 0 0-124.94577 0l-53.865509 19.29718a41.64859 41.64859 0 1 0 27.765726 78.438178l53.86551-19.29718a116.060738 116.060738 0 0 1 69.414317 0l41.64859 14.715835a197.414317 197.414317 0 0 0 124.94577 0l41.64859-14.715835a84.546638 84.546638 0 0 1 13.882863-3.609544 41.64859 41.64859 0 0 0-13.882863-82.047723 168.954447 168.954447 0 0 0-27.765727 7.219089l-41.64859 14.715835a115.78308 115.78308 0 0 1-69.414316 0zM518.663774 603.904555a107.592191 107.592191 0 0 1-59.140997 0l-36.095445-11.800434a190.056399 190.056399 0 0 0-111.062907 0l-47.062907 15.409979a41.64859 41.64859 0 0 0 25.960955 79.132321l47.062907-15.409978a107.592191 107.592191 0 0 1 59.140997 0l36.095445 11.800433a189.778742 189.778742 0 0 0 111.062907 0 41.64859 41.64859 0 0 0-25.960955-79.132321zM401.770065 442.308026h-109.535792a41.64859 41.64859 0 0 0 0 83.29718h109.535792a41.64859 41.64859 0 1 0 0-83.29718z">
  </path>
</svg>
