<?xml version="1.0" encoding="UTF-8"?>
<svg width="32px" height="32px" viewBox="0 0 32 32" version="1.1" xmlns="http://www.w3.org/2000/svg" xmlns:xlink="http://www.w3.org/1999/xlink">
    <!-- Generator: Sketch 60.1 (88133) - https://sketch.com -->
    <title>kuangxuan</title>
    <desc>Created with Sketch.</desc>
    <g id="页面-1" stroke="none" stroke-width="1" fill="none" fill-rule="evenodd">
        <g id="1.3首页-标绘-编辑火场" transform="translate(-1504.000000, -493.000000)" fill="#FFFFFF" fill-rule="nonzero">
            <g id="框选备份-2" transform="translate(1520.000000, 509.000000) scale(-1, 1) translate(-1520.000000, -509.000000) translate(1504.000000, 493.000000)">
                <path d="M26.1074455,28.449979 L20.6631502,28.449979 C19.8953649,28.449979 19.3369757,27.8217911 19.3369757,27.1238045 C19.3369757,26.3560193 19.9651636,25.79763 20.6631502,25.79763 L24.6416737,25.79763 C25.5490562,25.79763 26.1074455,25.0996435 26.1074455,24.4714555 L26.1074455,20.3533347 L26.1074455,8.13856963 C26.1074455,7.16138842 25.1302643,6.74259648 24.7114723,6.74259648 L20.6631502,6.74259648 C19.8953649,6.74259648 19.3369757,6.11440856 19.3369757,5.41642198 C19.3369757,4.7184354 19.9651636,4.09024748 20.6631502,4.09024748 L26.1074455,4.09024748 C27.0846267,4.09024748 28.8295931,4.7184354 28.8295931,6.81239513 L28.8295931,25.79763 C28.8295931,26.4956166 28.5503985,28.449979 26.1074455,28.449979 Z M11.1705327,6.74259648 L7.19200923,6.74259648 C6.00543205,6.74259648 5.72623742,7.51038171 5.72623742,8.20836829 L5.72623742,24.5412542 C5.72623742,24.8902475 5.86583473,25.79763 7.05241191,25.79763 L11.1705327,25.79763 C11.938318,25.79763 12.4967072,26.425818 12.4967072,27.1238045 C12.4967072,27.8915898 11.8685193,28.449979 11.1705327,28.449979 L5.72623742,28.449979 C3.84167366,28.449979 3.00408977,26.9144086 3.00408977,25.7278314 L3.00408977,6.74259648 C3.00408977,5.69561661 3.49268037,4.02044883 5.72623742,4.02044883 L11.1705327,4.02044883 C11.938318,4.02044883 12.4967072,4.64863674 12.4967072,5.34662332 C12.4967072,6.0446099 11.938318,6.74259648 11.1705327,6.74259648 Z" id="形状"></path>
                <polygon id="路径" points="17.1732173 24.5412542 14.3114723 17.8405831 7.54100252 14.9788381 21.0121435 11.1399119"></polygon>
            </g>
        </g>
    </g>
</svg>