<?xml version="1.0" standalone="no"?><!DOCTYPE svg PUBLIC "-//W3C//DTD SVG 1.1//EN" "http://www.w3.org/Graphics/SVG/1.1/DTD/svg11.dtd"><svg t="1657250990545" class="icon" viewBox="0 0 1024 1024" version="1.1" xmlns="http://www.w3.org/2000/svg" p-id="11393" xmlns:xlink="http://www.w3.org/1999/xlink" width="200" height="200"><defs><style type="text/css">@font-face { font-family: feedback-iconfont; src: url("//at.alicdn.com/t/font_1031158_u69w8yhxdu.woff2?t=1630033759944") format("woff2"), url("//at.alicdn.com/t/font_1031158_u69w8yhxdu.woff?t=1630033759944") format("woff"), url("//at.alicdn.com/t/font_1031158_u69w8yhxdu.ttf?t=1630033759944") format("truetype"); }
</style></defs><path d="M100.7 590.62c-11.29 0-22.44-5.1-29.79-14.78-12.45-16.44-9.21-39.87 7.22-52.3l77.92-59.03c76.14-57.42 182.41-57.4 258.48-0.05l60.16 45.1c6.83 5.16 16.27 5.1 23.02 0.05l60.3-45.21c76.01-57.33 182.26-57.31 258.34 0.05l60.16 45.1c6.82 5.18 16.25 5.12 23.01 0.05 16.46-12.43 39.87-9.1 52.28 7.36 12.4 16.48 9.11 39.89-7.36 52.28-33.21 25.03-79.59 25.03-112.78 0l-60.18-45.12c-49.68-37.46-118.99-37.46-168.6-0.07l-60.32 45.23c-33.13 24.99-79.52 24.97-112.73-0.04l-60.18-45.12c-49.68-37.46-118.98-37.46-168.59-0.07l-77.86 58.97c-6.72 5.14-14.65 7.6-22.5 7.6zM100.7 316.86c-11.28 0-22.44-5.1-29.79-14.78-12.45-16.44-9.22-39.85 7.21-52.3l77.92-59.04c76.14-57.42 182.4-57.4 258.49-0.05l60.17 45.14c6.81 5.12 16.26 5.1 23.01 0.04L558 190.64c75.99-57.28 182.25-57.33 258.35 0.05l60.17 45.14c6.8 5.12 16.24 5.12 23.01 0.04 16.46-12.43 39.87-9.1 52.28 7.36 12.4 16.48 9.11 39.89-7.36 52.28-33.21 25.03-79.59 25.01-112.78 0l-60.19-45.15c-49.68-37.44-119-37.42-168.59-0.05l-60.31 45.24c-33.15 24.99-79.53 24.97-112.74-0.04l-60.19-45.15c-49.66-37.42-118.95-37.44-168.58-0.05l-77.85 58.99a37.218 37.218 0 0 1-22.52 7.56zM100.7 864.41c-11.29 0-22.44-5.1-29.79-14.78-12.45-16.44-9.21-39.87 7.22-52.3l77.92-59.03c76.14-57.42 182.41-57.4 258.48-0.05l60.16 45.1c6.83 5.16 16.27 5.1 23.02 0.05l60.3-45.21c76.01-57.31 182.26-57.29 258.34 0.05l60.16 45.1c6.82 5.18 16.25 5.12 23.01 0.05 16.46-12.43 39.87-9.1 52.28 7.36 12.4 16.48 9.11 39.89-7.36 52.28-33.21 25.03-79.59 25.01-112.78 0l-60.18-45.12c-49.68-37.46-118.99-37.46-168.6-0.07l-60.32 45.23c-33.13 25.01-79.52 24.97-112.73-0.04l-60.18-45.12c-49.68-37.46-118.98-37.46-168.59-0.07l-77.86 58.97a36.971 36.971 0 0 1-22.5 7.6z" p-id="11394"></path></svg>