<svg id="图层_1" data-name="图层 1" xmlns="http://www.w3.org/2000/svg" viewBox="0 0 32 32"><title>SVG</title><path d="M16.27,3.93a12.2,12.2,0,1,0,12.19,12.2A12.22,12.22,0,0,0,16.27,3.93Zm0,22.65A10.45,10.45,0,1,1,26.71,16.13,10.46,10.46,0,0,1,16.27,26.58Z"/><path d="M13.9,17.33a4.57,4.57,0,0,0,2.59-.84,6.61,6.61,0,0,1,.63-.35,2.69,2.69,0,0,1,1.57-.25,3.09,3.09,0,0,1,2.06,1l.49.43a.79.79,0,0,0,.46.15.72.72,0,0,0,.45-1.29l-.43-.37a4.46,4.46,0,0,0-2.89-1.37,4.29,4.29,0,0,0-2.34.39,6.66,6.66,0,0,0-.75.42,3.16,3.16,0,0,1-2.22.6,2.79,2.79,0,0,1-1.67-.67.73.73,0,0,0-.72-.12.71.71,0,0,0-.46.57.75.75,0,0,0,.26.68,4.28,4.28,0,0,0,2.45,1Z"/><path d="M13.37,14.18a4.3,4.3,0,0,0,2.37-.71l.22-.12a3.08,3.08,0,0,1,2.21-.61,3.12,3.12,0,0,1,2.06,1l.49.42a.75.75,0,0,0,.45.16.73.73,0,0,0,.46-1.3h0c-.15-.11-.28-.24-.43-.37a4.68,4.68,0,0,0-6-.56l-.21.12a2.91,2.91,0,0,1-2,.49A2.86,2.86,0,0,1,11.32,12a.73.73,0,0,0-.92,1.13,4.21,4.21,0,0,0,2.46,1Z"/><path d="M22.25,19a4.57,4.57,0,0,0-2.9-1.38,4.79,4.79,0,0,0-1.14,0h0a4.94,4.94,0,0,0-1.95.78A3.1,3.1,0,0,1,14,19a2.86,2.86,0,0,1-1.67-.68.73.73,0,0,0-.92,1.13,4.25,4.25,0,0,0,2.46,1l.51,0A4.59,4.59,0,0,0,17,19.64a3.62,3.62,0,0,1,1.41-.59h0a3.51,3.51,0,0,1,.8,0,3.14,3.14,0,0,1,2.06,1c.15.14.31.28.49.42a.73.73,0,0,0,.45.16.73.73,0,0,0,.45-1.3Q22.46,19.16,22.25,19Z"/></svg>