<svg id="图层_1" data-name="图层 1" xmlns="http://www.w3.org/2000/svg" viewBox="0 0 32 32"><title>SVG</title><path d="M16.5,4.49a12,12,0,1,0,12,12A12,12,0,0,0,16.5,4.49Zm0,22.28A10.28,10.28,0,1,1,26.78,16.49,10.29,10.29,0,0,1,16.5,26.77Z"/><path d="M16.31,9.41A6.89,6.89,0,1,0,23.2,16.3,6.9,6.9,0,0,0,16.31,9.41Zm0,12.79a5.9,5.9,0,1,1,5.9-5.9A5.9,5.9,0,0,1,16.31,22.2Z"/><path d="M16,12.37A3.61,3.61,0,0,0,12.37,16a.68.68,0,1,0,1.35,0A2.26,2.26,0,0,1,16,13.72a.68.68,0,0,0,.67-.68A.67.67,0,0,0,16,12.37Z"/></svg>