<?xml version="1.0" encoding="UTF-8"?>
<svg width="22px" height="22px" viewBox="0 0 22 22" version="1.1" xmlns="http://www.w3.org/2000/svg"
    xmlns:xlink="http://www.w3.org/1999/xlink">
    <!-- Generator: Sketch 60.1 (88133) - https://sketch.com -->
    <title>轨迹</title>
    <desc>Created with Sketch.</desc>
    <g id="态势感知" stroke="none" stroke-width="1" fill="none" fill-rule="evenodd" opacity="0.800000012">
        <g id="1.2.0无人机" transform="translate(-1869.000000, -514.000000)" fill="#FFFFFF" fill-rule="nonzero"
            stroke="#FFFFFF" stroke-width="0.2">
            <g id="guiji2" transform="translate(1864.000000, 509.000000)">
                <g id="编组-14" transform="translate(5.000000, 5.000000)">
                    <path
                        d="M6.0011493,14.0556426 C6.33028247,14.0556426 6.59874797,14.3240889 6.59874797,14.6532413 C6.59874797,14.9823937 6.33030166,15.25084 6.0011493,15.25084 L6.0011493,15.25084 L3.87451793,15.25084 C3.48934249,15.25084 3.19521654,15.5216278 3.19521654,15.8321058 C3.19521654,16.1425646 3.48934249,16.4133716 3.87451793,16.4133716 L3.87451793,16.4133716 L17.4886437,16.4133716 C18.5134303,16.4133716 19.3631616,17.1977138 19.3631616,18.1898347 C19.3631616,19.1819364 18.5134303,19.9662979 17.4886437,19.9662979 L17.4886437,19.9662979 L5.57628364,19.9662979 C5.24480898,19.9662979 4.97868497,19.6978516 4.97868497,19.3686992 C4.97868497,19.0395468 5.24713128,18.7710813 5.57628364,18.7710813 L5.57628364,18.7710813 L17.4909851,18.7710813 C17.8761606,18.7710813 18.1702865,18.5002935 18.1702865,18.1898347 C18.1702865,17.8793567 17.8761606,17.6085689 17.4909851,17.6085689 L17.4909851,17.6085689 L3.87451793,17.6085689 C2.8497313,17.6085689 2,16.8242075 2,15.8321058 C2,14.8399849 2.8497313,14.0556426 3.87451793,14.0556426 L3.87451793,14.0556426 Z M10.7842994,3 C12.0588387,3 13.2610606,3.48555252 14.1691564,4.36560807 C15.1075765,5.27368475 15.6188087,6.48989794 15.6094619,7.78315006 C15.6094619,7.81115201 15.6071396,8.04925488 15.5510974,8.4437771 C15.2546299,10.1758862 13.9473864,12.1741194 12.8969202,13.553738 C12.8665575,13.598092 12.8338918,13.6354408 12.8082122,13.6634619 C12.1593965,14.4544098 11.5069348,15.0181749 11.3399416,15.1575188 L11.3001953,15.1901531 L10.7842994,15.6079943 L10.2660619,15.1924754 C10.2357185,15.1667957 9.49338873,14.5691971 8.75572277,13.6704672 C8.72298795,13.6374103 8.69329856,13.6014708 8.66701477,13.5630848 C7.8032729,12.4332381 6.32794098,10.2926154 6.01049607,8.4391133 C5.95679529,8.06560694 5.9544538,7.82516257 5.9544538,7.80414672 C5.94512622,6.50156702 6.45868068,5.28069003 7.40644757,4.36560807 C8.31684655,3.48555252 9.51438539,3 10.7842994,3 Z M10.7796164,4.34693371 C8.79072999,4.34693371 7.16132022,5.96233291 7.18001377,7.95121929 C7.18001377,7.95121929 7.18001377,8.13097679 7.22434858,8.42976653 C7.46247065,9.81871274 8.58531205,11.5531826 9.48636425,12.7250418 C9.49338873,12.7390331 9.5073801,12.7530437 9.51438539,12.760049 C10.1400052,13.5303999 10.7819579,14.0439543 10.7819579,14.0439543 C10.7819579,14.0439543 11.4215882,13.5233946 12.0495303,12.7530437 C12.0565356,12.7460576 12.0705462,12.7320471 12.0775323,12.7180365 C12.9786229,11.539172 14.1014451,9.81172665 14.3395672,8.41809745 C14.3728327,8.19399075 14.381149,8.03686128 14.3832281,7.97230322 L14.3839212,7.93955022 C14.3979125,5.95066384 12.7685219,4.34693371 10.7796164,4.34693371 Z M10.7796164,6.07670136 C11.9818382,6.07670136 12.9622708,7.03145434 12.9622708,8.20799652 C12.9622708,9.3845387 11.9818382,10.3392917 10.7796164,10.3392917 C9.57741375,10.3392917 8.59698112,9.38451951 8.59698112,8.20799652 C8.59698112,7.03147354 9.57739455,6.07670136 10.7796164,6.07670136 Z M10.7796164,7.12484533 C10.1750124,7.12484533 9.68479611,7.61506164 9.68479611,8.22200709 C9.68479611,8.82661105 10.1749932,9.31916885 10.7796164,9.31916885 C11.3842395,9.31916885 11.8744558,8.82661105 11.8744558,8.22200709 C11.8744558,7.61506164 11.3842395,7.12484533 10.7796164,7.12484533 Z"
                        id="形状结合"></path>
                </g>
            </g>
        </g>
    </g>
</svg>