<svg id="图层_1" data-name="图层 1" xmlns="http://www.w3.org/2000/svg" viewBox="0 0 24 24"><title>SVG</title><path d="M6.17,9V19.16A.84.84,0,0,0,7,20H17a.84.84,0,0,0,.84-.83v-11H6.17Zm8.33,1.65a.83.83,0,0,1,1.66,0v6.89a.83.83,0,0,1-1.66,0Zm-3.33,0a.83.83,0,0,1,1.66,0v6.89a.83.83,0,0,1-1.66,0Zm-3.33,0a.83.83,0,0,1,1.66,0h0v6.89a.83.83,0,0,1-1.66,0Z"/><path d="M17.83,5.67H13.66V4.84A.83.83,0,0,0,12.83,4H11.17a.83.83,0,0,0-.83.83v.82H6.17a.83.83,0,0,0-.83.83v.83H18.66V6.49A.83.83,0,0,0,17.83,5.67Z"/></svg>