<svg id="Capa_1" enable-background="new 0 0 512 512" height="512" viewBox="0 0 512 512" width="512" xmlns="http://www.w3.org/2000/svg"><g><path d="m507.237 194.594-42.063-84.127 11.853-11.854c22.179-22.178 34.394-51.666 34.394-83.032 0-8.284-6.716-15-15-15-31.366 0-60.854 12.215-83.032 34.394l-11.854 11.853-84.128-42.065c-17.353-8.674-38.227-5.288-51.944 8.431l-5.923 5.923c-5.858 5.857-5.858 15.355 0 21.213l16.361 16.362c-24.995-5.067-50.853-6.052-76.267-2.688-50.455 6.685-96.192 29.286-132.269 65.362-43.441 43.441-67.365 101.199-67.365 162.634s23.924 119.193 67.365 162.634c43.442 43.441 101.199 67.366 162.635 67.366 61.432 0 119.196-23.927 162.635-67.365 36.076-36.076 58.678-81.813 65.362-132.269 3.367-25.414 2.382-51.271-2.685-76.264l16.359 16.359c5.857 5.857 15.355 5.857 21.213 0l5.923-5.923c13.718-13.718 17.105-34.592 8.43-51.944zm-181.881-88.447 8.429 8.429-25.266 25.265-16.041-5.348c-13.444-4.481-27.813-2.403-39.246 5.287-9.041-8.605-23.646-16.113-47.122-16.113-14.736 0-25.31-17.439-31.939-33.554 49.511-14.336 104.022-9.567 151.185 16.034zm-80.349 108.899c2.727-3.277 5.378-6.471 7.878-9.618l34.513 19.174 19.114 34.406c-49.991 20.591-70.482 18.426-78.433 14.966-3.948-1.718-6.27-4.329-7.763-8.733-4.943-14.583 10.8-33.503 24.691-50.195zm-98.969-114.455c17.57 43.409 41.904 53.076 60.073 53.076 11.241 0 19.681 2.277 25.233 6.782l-7.16 7.16c-3.328 3.328-4.901 8.026-4.249 12.688.588 4.194 2.926 7.908 6.384 10.278-1.417 1.728-2.881 3.49-4.373 5.283-17.989 21.619-40.378 48.524-30.041 79.015 4.184 12.338 12.554 21.54 24.205 26.609 7.268 3.162 15.722 4.757 25.518 4.757 20.323-.001 46.429-6.886 79.604-20.862 2.357 3.623 6.158 6.085 10.472 6.689.695.097 1.39.145 2.082.145 3.949 0 7.773-1.562 10.605-4.394l22.245-22.244c.899-.899 1.74-1.838 2.552-2.795 20.104-10.321 39.236-21.028 54.703-29.8 6.733 26.903 7.724 54.784 3.232 81.787-18.223-3.775-40.316-6.875-60.729-5.751-43.168 2.379-60.104 22.567-66.71 39.083-14.688 36.721-37.896 40.054-67.276 44.274-10.321 1.483-20.994 3.017-31.251 6.268-21.975 6.966-47.027 33.668-60.239 62.44-11.594-5.756-22.744-12.701-33.26-20.844 21.92-20.587 45.19-46.567 52.96-69.88 9.545-28.636.012-45.56-7.648-59.158-3.875-6.879-7.221-12.82-8.181-20.177-2.777-21.291 1.354-30.294 7.606-43.922 2.623-5.718 5.597-12.199 8.223-20.077 7.721-23.16 1.732-39.7-4.65-49.496-13.439-20.627-40.786-31.263-67.641-36.689.085-.085.166-.172.251-.257 16.955-16.955 36.474-30.331 57.46-39.988zm231.469 118.931-5.348-16.042 25.265-25.266 8.429 8.429c3.083 5.68 5.869 11.464 8.35 17.335-10.205 5.803-22.38 12.696-35.52 19.836-.328-1.437-.702-2.87-1.176-4.292zm-311.567-51.94c32.743 4.132 56.719 13.774 64.893 26.319 2.613 4.011 5.595 10.825 1.325 23.633-2.111 6.334-4.611 11.783-7.029 17.053-6.873 14.979-13.979 30.47-10.087 60.313 1.712 13.128 7.066 22.633 11.79 31.02 6.65 11.806 10.665 18.932 5.326 34.948-4.81 14.431-22.03 36.075-46.861 59.188-66.453-69.607-72.907-175.767-19.357-252.474zm305.482 255.84c-54.739 54.738-133.574 71.048-202.677 48.938 10.309-21.731 29.108-41.204 41.476-45.125 7.902-2.505 16.913-3.8 26.452-5.17 31.071-4.463 69.741-10.019 90.865-62.828 1.824-4.562 7.377-18.444 40.507-20.271 17.027-.937 35.974 1.684 51.973 4.954-9.515 29.356-25.834 56.739-48.596 79.502zm109.769-203.867-73.16-73.159c-2.812-2.813-6.628-4.394-10.606-4.394s-7.794 1.58-10.606 4.394l-42.426 42.427c-4.018 4.018-5.421 9.96-3.624 15.35l8.278 24.838c1.809 5.424.42 11.306-3.623 15.35l-8.184 8.183-25.697-46.256c-1.36-2.449-3.379-4.468-5.828-5.828l-46.256-25.697 8.183-8.184c4.045-4.044 9.929-5.43 15.351-3.623l24.837 8.278c5.39 1.795 11.333.394 15.35-3.624l42.427-42.426c2.813-2.812 4.394-6.628 4.394-10.606s-1.58-7.794-4.394-10.606l-73.159-73.16c3.713-1.266 7.865-1.053 11.545.786l93.797 46.898c5.777 2.891 12.751 1.757 17.314-2.81l19.496-19.499c12.539-12.54 28.219-20.801 45.264-24.051-3.25 17.046-11.511 32.725-24.051 45.264l-19.497 19.498c-4.565 4.565-5.697 11.54-2.81 17.314l46.897 93.797c1.84 3.679 2.053 7.833.788 11.546z"/></g></svg>