<?xml version="1.0" standalone="no"?><!DOCTYPE svg PUBLIC "-//W3C//DTD SVG 1.1//EN" "http://www.w3.org/Graphics/SVG/1.1/DTD/svg11.dtd"><svg t="1607507917205" class="icon" viewBox="0 0 1152 1024" version="1.1" xmlns="http://www.w3.org/2000/svg" p-id="1520" xmlns:xlink="http://www.w3.org/1999/xlink" width="225" height="200"><defs><style type="text/css"></style></defs><path d="M227.767609 455.999858l76.575976-59.519982a47.487985 47.487985 0 0 1 67.263979 3.135999c17.727994 19.519994 16.319995 49.759984-3.135999 67.519979l-159.64795 128.41596c-17.855994 16.319995-45.055986 16.639995-63.26398 0.736L16.407675 435.903864a47.935985 47.935985 0 0 1-4.735999-67.455979 47.487985 47.487985 0 0 1 67.199979-4.735999l54.463983 74.303977C169.175627 190.303941 382.391561 0 640.02348 0c282.783912 0 511.99984 229.215928 511.99984 511.99984s-229.215928 511.99984-511.99984 511.99984a510.52784 510.52784 0 0 1-368.063885-156.095951 47.999985 47.999985 0 0 1 68.991978-66.751979A414.55987 414.55987 0 0 0 640.02348 927.99971c229.759928 0 415.99987-186.239942 415.99987-415.99987S869.783408 95.99997 640.02348 95.99997C429.271546 95.99997 255.0956 252.735921 227.767609 455.999858z" fill="#cccccc" p-id="1521"></path></svg>
