<?xml version="1.0" standalone="no"?><!DOCTYPE svg PUBLIC "-//W3C//DTD SVG 1.1//EN" "http://www.w3.org/Graphics/SVG/1.1/DTD/svg11.dtd"><svg t="1607507907183" class="icon" viewBox="0 0 1152 1024" version="1.1" xmlns="http://www.w3.org/2000/svg" p-id="1369" xmlns:xlink="http://www.w3.org/1999/xlink" width="225" height="200"><defs><style type="text/css"></style></defs><path d="M924.256 456l-76.576-59.52a47.488 47.488 0 0 0-67.264 3.136c-17.728 19.52-16.32 49.76 3.136 67.52l159.648 128.416c17.856 16.32 45.056 16.64 63.264 0.736l129.152-160.384c19.84-17.312 21.952-47.52 4.736-67.456a47.488 47.488 0 0 0-67.2-4.736l-54.464 74.304C982.848 190.304 769.632 0 512 0 229.216 0 0 229.216 0 512s229.216 512 512 512c140.608 0 272.256-57.024 368.064-156.096a48 48 0 0 0-68.992-66.752A414.56 414.56 0 0 1 512 928C282.24 928 96 741.76 96 512S282.24 96 512 96c210.752 0 384.928 156.736 412.256 360z" fill="#cccccc" p-id="1370"></path></svg>
