<?xml version="1.0" standalone="no"?>
<!DOCTYPE svg><svg viewBox="0 0 1024 1024">
  <path
    d="M276.8896 612.10624v9.46176c0 2.4576 0.32768 5.28384 0.32768 7.74144 0.32768 3.52256 0.65536 6.67648 0.94208 10.19904l0.32768 2.82624a18.71872 18.71872 0 0 0 0.32768 4.096c0.32768 3.85024 1.26976 8.192 1.92512 12.288l0.94208 4.096c0.94208 4.54656 1.92512 8.43776 2.8672 12.65664l1.26976 4.54656c0.94208 3.85024 2.2528 7.74144 3.52256 11.59168l1.92512 5.61152c1.26976 3.52256 2.58048 6.67648 3.85024 10.19904a68.32128 68.32128 0 0 1 3.19488 7.00416l1.59744 3.15392c0.94208 1.76128 1.59744 3.52256 2.58048 5.28384a215.12192 215.12192 0 0 0 7.70048 14.04928l0.65536 1.39264c3.85024 6.30784 8.192 12.65664 12.82048 19.29216l1.59744 2.4576c4.79232 6.30784 9.29792 11.91936 13.76256 16.83456l0.94208 1.35168a174.32576 174.32576 0 0 0 15.68768 15.81056l1.59744 1.39264 1.26976 1.06496c4.46464 3.85024 8.97024 7.74144 13.76256 11.22304 1.59744 1.06496 3.19488 2.4576 4.79232 3.52256 5.12 3.52256 9.91232 6.67648 15.07328 9.8304l3.85024 2.4576c1.92512 1.06496 3.52256 2.08896 5.12 2.82624l4.096 2.08896a109.24032 109.24032 0 0 0 10.89536 5.61152c3.52256 1.76128 7.04512 3.15392 10.56768 4.54656l4.79232 2.08896a29.2864 29.2864 0 0 0 5.77536 2.4576c4.79232 1.76128 10.24 3.15392 15.07328 4.54656l2.2528 0.69632c1.59744 0.36864 3.19488 1.06496 4.79232 1.39264 5.44768 1.39264 10.56768 2.08896 15.36 3.15392l2.2528 0.36864 5.44768 1.06496c4.79232 0.36864 9.29792 1.06496 14.09024 1.39264l2.58048 0.36864a43.74528 43.74528 0 0 0 6.71744 0.69632h24.00256c2.58048-0.36864 4.79232-0.36864 7.04512-0.69632l2.58048-0.36864c4.79232-0.36864 9.29792-0.69632 14.09024-1.39264 1.92512-0.36864 3.85024-0.69632 5.44768-1.06496l2.2528-0.36864c4.46464-0.69632 9.91232-1.76128 15.36-3.15392a23.42912 23.42912 0 0 0 4.096-1.06496l2.8672-0.69632c4.79232-1.39264 9.91232-2.82624 15.07328-4.54656 1.92512-0.69632 3.85024-1.76128 5.77536-2.4576l4.79232-2.08896c3.52256-1.39264 7.04512-2.82624 10.56768-4.54656a109.03552 109.03552 0 0 0 10.89536-5.61152l4.096-2.08896c1.92512-1.06496 3.85024-1.76128 5.44768-2.82624l2.58048-1.76128c6.10304-3.85024 11.22304-7.00416 16.01536-10.52672l3.52256-2.82624c5.77536-4.096 10.24-8.192 14.7456-11.91936l2.8672-2.21184c5.44768-5.28384 10.89536-10.52672 16.01536-16.13824s9.91232-11.59168 14.41792-17.57184l1.92512-2.4576a307.93728 307.93728 0 0 0 12.82048-19.29216l0.65536-1.39264c2.8672-4.54656 5.12-9.13408 7.70048-14.04928 0.65536-1.76128 1.59744-3.15392 2.2528-4.9152l1.59744-3.85024c1.26976-2.4576 2.2528-4.9152 3.19488-7.00416 1.26976-3.52256 2.58048-6.67648 3.85024-10.19904 0.65536-1.76128 1.26976-3.85024 1.92512-5.61152 1.26976-3.85024 2.58048-7.74144 3.52256-11.59168 0.32768-1.39264 0.94208-2.82624 1.26976-4.54656 0.94208-3.85024 1.92512-8.192 2.8672-12.288l0.94208-4.54656c0.65536-3.85024 1.26976-8.192 1.92512-12.288l0.65536-5.61152c0.32768-3.85024 0.65536-7.74144 0.94208-11.22304a65.29024 65.29024 0 0 0 0.32768-8.192v-8.68352c0-5.98016-0.32768-11.91936-0.65536-17.57184l-0.65536-7.74144c0-1.06496-0.32768-2.4576-0.32768-3.52256v-1.39264c-0.32768-3.85024-0.94208-8.192-1.59744-12.288-0.32768-2.82624-0.94208-5.98016-1.59744-9.13408l-0.94208-4.9152c-14.09024-73.35936-55.0912-159.744-121.40544-256.28672A1340.66176 1340.66176 0 0 0 536.576 178.176a35.51232 35.51232 0 0 0-5.77536-5.61152 19.2512 19.2512 0 0 0-24.9856 0c-2.58048 2.08896-5.12 4.54656-5.12 4.54656A1416.56064 1416.56064 0 0 0 405.504 300.35968C339.02592 396.9024 298.35264 483.328 283.93472 557.34272l-0.94208 4.54656c-0.65536 3.15392-1.26976 6.30784-1.59744 9.46176-0.65536 3.85024-1.26976 8.192-1.59744 12.288a40.30464 40.30464 0 0 0-0.65536 4.54656l-0.6144 7.08608a118.12864 118.12864 0 0 1-1.6384 16.83456z m76.22656-2.82624l-0.32768-5.61152c0-4.096 0.32768-8.192 0.65536-12.65664l0.94208-8.192a15.7696 15.7696 0 0 1 5.44768-10.52672 12.86144 12.86144 0 0 1 10.24-3.15392 13.80352 13.80352 0 0 1 9.6256 5.98016 15.68768 15.68768 0 0 1 2.8672 11.22304l-0.94208 7.3728c-0.32768 3.52256-0.32768 6.67648-0.32768 9.8304v9.46176c0.32768 1.76128 0.32768 3.85024 0.65536 5.61152l0.32768 3.52256a47.80032 47.80032 0 0 0 0.94208 6.67648l0.32768 2.4576c0.65536 2.4576 0.94208 4.54656 1.59744 6.67648l0.65536 2.82624 1.92512 6.30784 0.94208 3.15392a40.96 40.96 0 0 0 2.2528 5.61152 55.95136 55.95136 0 0 1 2.58048 5.28384l1.59744 3.15392c0.94208 2.4576 2.58048 4.9152 4.096 8.192l0.32768 0.69632c2.2528 3.52256 4.46464 7.00416 7.3728 10.89536l0.94208 1.39264c2.58048 3.15392 5.12 6.30784 8.192 9.8304s6.10304 5.98016 8.97024 8.76544l1.59744 1.39264 7.70048 6.30784 2.8672 2.08896c2.8672 1.76128 5.44768 3.85024 8.64256 5.61152l8.192 4.54656c1.92512 1.06496 3.52256 1.76128 5.44768 2.82624a40.50944 40.50944 0 0 0 5.77536 2.4576l1.59744 0.69632a14.49984 14.49984 0 0 1 8.192 8.192 17.08032 17.08032 0 0 1 0.65536 11.91936 14.336 14.336 0 0 1-13.14816 10.19904 15.89248 15.89248 0 0 1-6.10304-1.39264l-7.70048-3.15392a74.21952 74.21952 0 0 1-7.3728-3.85024l-2.8672-1.39264-4.46464-2.4576-1.59744-1.06496c-3.52256-2.08896-7.04512-4.54656-10.56768-7.00416l-3.19488-2.4576c-3.19488-2.4576-6.10304-4.9152-9.29792-7.74144l-1.92512-1.76128c-3.85024-3.52256-7.3728-7.00416-11.55072-11.59168-3.19488-3.52256-6.10304-7.3728-9.29792-11.59168l-1.26976-1.76128a144.384 144.384 0 0 1-9.29792-14.04928 339.968 339.968 0 0 1-5.12-9.8304l-2.58048-5.61152a22.3232 22.3232 0 0 1-2.2528-4.9152c-0.94208-2.4576-1.59744-4.54656-2.8672-7.74144l-0.94208-3.15392a78.52032 78.52032 0 0 1-2.58048-8.192l-0.94208-3.15392c-0.65536-3.15392-1.26976-5.98016-1.92512-8.76544l-0.65536-2.82624c-0.32768-2.82624-0.94208-5.61152-1.26976-8.43776l-0.65536-5.28384a42.31168 42.31168 0 0 1-0.65536-6.30784 35.2256 35.2256 0 0 1-0.32768-5.61152z"
    p-id="1406"></path>
</svg>
