<svg xmlns="http://www.w3.org/2000/svg" width="200" height="200" class="icon" viewBox="0 0 1024 1024"><path d="M852.8 193.6C811.2 113.6 731.2 64 640 64c-105.6 0-195.2 65.6-227.2 161.6-120 14.4-219.2 104-246.4 224-65.6 8-123.2 51.2-150.4 113.6-6.4 16 0 35.2 16 41.6 16 6.4 35.2 0 41.6-16 20.8-46.4 65.6-76.8 115.2-76.8l32 1.6 3.2-28.8C240 372.8 336 288 448 288c91.2 0 172.8 56 208 140.8l9.6 22.4L688 448c4.8 0 9.6-1.6 16-1.6 78.4 0 145.6 56 158.4 132.8 3.2 16 16 27.2 32 27.2h4.8c17.6-3.2 28.8-19.2 25.6-36.8-1.6-6.4-1.6-11.2-3.2-16C984 521.6 1024 456 1024 384c0-99.2-75.2-180.8-171.2-190.4zm44.8 300.8C859.2 428.8 787.2 385.6 707.2 384c-43.2-88-128-147.2-224-158.4 27.2-59.2 88-97.6 156.8-97.6 72 0 134.4 43.2 163.2 108.8l8 19.2H832c70.4 0 128 57.6 128 128 0 46.4-24 88-62.4 110.4zM960 672c0-17.6-14.4-32-32-32H32c-17.6 0-32 14.4-32 32s14.4 32 32 32h896c17.6 0 32-14.4 32-32zm-64 128c0-17.6-14.4-32-32-32H96c-17.6 0-32 14.4-32 32s14.4 32 32 32h768c17.6 0 32-14.4 32-32zm-704 96c-17.6 0-32 14.4-32 32s14.4 32 32 32h608c17.6 0 32-14.4 32-32s-14.4-32-32-32H192z"/></svg>