<svg xmlns="http://www.w3.org/2000/svg" width="200" height="200" class="icon" viewBox="0 0 1024 1024"><path d="M97.064 510.927a39.639 39.639 0 0 0-19.126-34.365 37.449 37.449 0 0 0-38.432 0 39.728 39.728 0 0 0-19.083 34.365c-.044 14.166 7.15 27.26 19.037 34.366a37.449 37.449 0 0 0 38.478 0 39.639 39.639 0 0 0 19.126-34.366M54.97 660.993c66.452 204.673 252.179 342.584 461.814 342.584 268.713 0 486.794-225.053 486.794-501.32a34.723 34.723 0 0 0-2.1-11.707 36.198 36.198 0 0 0-51.392-29.496c-.805.448-103.99 48.175-240.784 7.33a820.888 820.888 0 0 1-67.836-23.774c-46.343-17.787-89.289-34.322-145.24-34.322-47.147 0-103.186 11.799-178.53 43.885-18.547 7.777-27.35 29.85-19.754 49.426a36.52 36.52 0 0 0 47.951 20.377c138.134-59.077 190.687-39.057 270.278-8.758 21.45 8.31 45.449 17.428 72.842 25.65 101.892 30.747 187.783 19.932 239.623 6.972-21.898 213.703-197.882 381.107-411.362 381.107-178.53 0-336.06-117.086-392.457-290.925a36.512 36.512 0 0 0-46.342-23.863c-19.752 5.63-30.253 26.903-23.505 46.834m466.103-595.88c55.995 0 98.941 16.534 145.283 34.23a1256.627 1256.627 0 0 0 45.495 16.983c19.261 6.435 29.36 27.706 23.148 47.728a36.377 36.377 0 0 1-46.342 23.863 790.007 790.007 0 0 1-47.997-17.876c-79.545-30.298-131.83-50.319-270.366 8.67a36.78 36.78 0 0 1-47.997-20.377 38.745 38.745 0 0 1 19.797-49.427c75.39-32.533 131.832-43.794 178.935-43.794M502.93 242.08c54.789 0 96.438 15.999 141.932 33.339 20.644 7.774 42.14 16.088 66.139 23.416 135.094 40.755 234.035-6.436 234.84-6.882a35.438 35.438 0 0 1 47.682 17.25c8.401 18.321.849 40.398-16.936 49.067-5.095 2.593-125.04 59.436-285.876 11.352-26.545-7.865-50.05-16.982-71.1-25.205-77.488-29.94-128.882-49.427-263.975 8.67-150.735 64.62-269.563 13.496-274.12 11.262a36.734 36.734 0 0 1-18.637-48.086 34.947 34.947 0 0 1 46.834-19.127c3.755 1.699 97.199 40.31 218.528-11.708 73.648-32.086 128.48-43.348 174.69-43.348"/></svg>