<svg xmlns="http://www.w3.org/2000/svg" width="200" height="200" class="icon" viewBox="0 0 1024 1024"><path d="m1004.77 596.02-30.412-49.304a90.543 90.543 0 0 0-25.342-28.108 88.47 88.47 0 0 0-46.078-13.823 401.8 401.8 0 0 0-105.52 8.755l-13.592-77.642a143.533 143.533 0 0 1-2.765-58.058 140.077 140.077 0 0 1 32.255-46.078 269.096 269.096 0 0 0 43.774-60.593 46.078 46.078 0 0 0-84.553-40.779 194.68 194.68 0 0 1-29.951 39.627 214.263 214.263 0 0 0-51.838 82.25 216.567 216.567 0 0 0 0 99.528l9.216 53.22a271.4 271.4 0 0 0-84.784-26.264 257.346 257.346 0 0 1-48.382-12.21 30.872 30.872 0 0 1-20.965-25.113 46.078 46.078 0 0 0-13.133-60.593v-4.838a276.468 276.468 0 0 0-42.161-96.073 209.425 209.425 0 0 0-50.225-47.69A1212.083 1212.083 0 0 1 655.959 86.626a46.078 46.078 0 0 0-42.161-81.328 1303.318 1303.318 0 0 0-260.11 181.317 671.818 671.818 0 0 0-221.636-51.147 46.078 46.078 0 1 0-5.069 92.157 577.588 577.588 0 0 1 153.67 29.95c-5.529 5.76-11.058 11.29-16.588 17.28l-2.764 2.995a195.601 195.601 0 0 1-24.652 23.039 195.37 195.37 0 0 1-34.559 18.43L94.268 368.625a46.078 46.078 0 1 0 38.245 83.862l108.053-49.073a271.86 271.86 0 0 0 51.377-28.338 270.939 270.939 0 0 0 37.323-35.25l2.534-2.764q19.123-20.735 38.936-40.318a146.989 146.989 0 0 1 46.078 37.784 196.753 196.753 0 0 1 26.034 64.97c2.074 8.063 3.456 15.666 4.838 23.039a320.012 320.012 0 0 1-57.597 61.283l-11.75 9.216c-32.715 25.343-75.568 58.75-85.475 109.435a2173.04 2173.04 0 0 0-237.532-26.494A46.078 46.078 0 0 0 6.72 618.367a46.078 46.078 0 0 0 43.543 48.613 2206.447 2206.447 0 0 1 261.724 31.563 67.274 67.274 0 0 1 7.602 24.882c0 12.211-20.504 27.186-39.627 41.7a368.624 368.624 0 0 0-37.784 31.334c-71.881 71.19-58.288 142.381-34.328 189.611a46.078 46.078 0 1 0 82.02-41.47c-13.364-26.265-15.437-50.225 17.048-82.25a175.557 175.557 0 0 1 13.363-11.75 301.35 301.35 0 0 0 109.896 59.672l5.99 1.843a79.485 79.485 0 0 1 15.436 5.299 79.024 79.024 0 0 1 10.828 15.666l38.015 63.819A46.078 46.078 0 1 0 579.7 950.82l-38.014-63.818a134.778 134.778 0 0 0-35.941-43.313 133.857 133.857 0 0 0-44.235-19.353l-5.069-1.382a211.268 211.268 0 0 1-66.583-34.328 108.744 108.744 0 0 0 21.657-58.059 102.524 102.524 0 0 0 0-13.362l88.01 15.436c49.072 8.294 104.596 17.51 144.223 46.078 8.295 5.76 16.589 12.902 25.343 20.505a309.184 309.184 0 0 0 49.534 36.862 313.33 313.33 0 0 0 94.46 28.569 203.204 203.204 0 0 1 73.725 23.039 46.078 46.078 0 1 0 52.299-76.03 277.85 277.85 0 0 0-107.823-38.244 237.763 237.763 0 0 1-69.117-20.505 233.385 233.385 0 0 1-34.558-26.495c-9.907-8.524-20.275-17.51-32.255-25.803-56.676-40.088-126.254-51.838-182.008-61.054-38.476-6.45-74.647-12.902-109.436-19.122l-20.965-3.686c5.068-16.819 29.26-35.48 51.146-52.299l12.672-9.907a408.943 408.943 0 0 0 38.936-35.94 122.337 122.337 0 0 0 46.078 32.024 333.605 333.605 0 0 0 66.352 17.51 171.41 171.41 0 0 1 61.745 18.891l8.294 5.99a128.558 128.558 0 0 0 42.161 23.04 132.014 132.014 0 0 0 76.029-5.76l4.838-1.383a311.948 311.948 0 0 1 104.137-12.671l31.333 48.843a46.078 46.078 0 1 0 77.872-49.073z"/></svg>