<svg xmlns="http://www.w3.org/2000/svg" width="200" height="200" class="icon" viewBox="0 0 1024 1024"><path d="M671.787 116.48c-1.174-.64-2.347-1.067-3.627-1.493-48.32-19.2-101.013-29.654-156.16-29.654-235.307 0-426.667 191.36-426.667 426.667 0 182.187 114.667 338.027 275.734 399.04.106.107.213.107.32.213 1.28.534 2.666.96 4.053 1.494l.96.32a425.173 425.173 0 0 0 145.6 25.6c56.32 0 110.08-10.987 159.36-30.934a50.213 50.213 0 0 0 5.547-2.24c153.6-64.533 261.76-216.64 261.76-393.493 0-178.773-110.507-332.267-266.88-395.52zM360 841.173C235.733 783.68 149.333 657.707 149.333 512c0-191.573 149.227-348.8 337.494-361.813L302.613 485.973a31.968 31.968 0 0 0 28.054 47.36h179.626L360 841.173zM631.467 854.4c-37.44 13.12-77.654 20.267-119.467 20.267-31.573 0-62.187-4.054-91.413-11.627l169.706-347.627c4.8-9.92 4.16-21.653-1.706-31.04a31.808 31.808 0 0 0-27.094-15.04H384.747L558.72 152.32c18.133 2.347 35.84 5.973 53.013 10.987l-89.706 174.08c-5.12 9.92-4.694 21.76 1.173 31.253 5.76 9.6 16.107 15.36 27.307 15.36h108.906l-27.946 470.4zm66.026-30.827 27.84-469.653c.427-8.853-2.666-17.493-8.746-23.893-5.974-6.4-14.4-10.027-23.254-10.027h-90.346l68.8-133.547c120.106 59.2 202.88 182.827 202.88 325.547 0 132.267-71.147 248.213-177.174 311.573z"/></svg>